<?xml version="1.0" encoding="utf-8"?>
<!-- Generator: Adobe Illustrator 23.0.0, SVG Export Plug-In . SVG Version: 6.00 Build 0)  -->
<svg version="1.1" id="Layer_1" xmlns="http://www.w3.org/2000/svg" xmlns:xlink="http://www.w3.org/1999/xlink" x="0px" y="0px"
	 viewBox="0 0 595.28 246.35" style="enable-background:new 0 0 595.28 246.35;" xml:space="preserve">
<style type="text/css">
	.st0{fill:#FBB040;}
	.st1{fill:#414042;}
	.st2{fill:none;stroke:#FBB040;stroke-width:2;stroke-miterlimit:10;}
</style>
<path class="st0" d="M388.26,78.77c0.28,0,1.18,0.1,1.18,1.45c0,1.09-0.64,2.85-1.96,5.39c-2.42,4.8-4.52,9.41-6.31,13.84
	c12.04-9.1,22.77-13.67,32.18-13.67c10.05,0,16.89,3.26,20.52,9.78c0.63,1.54,1.31,2.31,2.04,2.31c1.09,0,2.13-2.13,3.13-6.39
	c0.81-3.62,1.22-6.57,1.22-8.83c0-4.71-1.99-8.63-5.98-11.75c-3.99-3.13-9.15-4.69-15.49-4.69c-14.58,0-30.3,7.2-47.15,21.6
	c-13.59,13.41-27.22,26.81-40.89,40.22c-15.22,14.4-28.08,21.65-38.59,21.74c-7.25,0-11.14-4.94-11.68-14.81
	c-0.73-13.31,3.89-29.84,13.86-49.59c1.27-2.45,1.9-4.17,1.9-5.16c0-0.63-0.23-0.95-0.68-0.95c-1.54,0-2.99,1.22-4.35,3.67
	c-10.96,19.66-16.44,37.59-16.44,53.8c0,7.7,2.63,14.31,7.88,19.84c5.25,5.52,11.59,8.24,19.02,8.15
	c7.7-0.09,17.93-6.48,30.71-19.16c18.81-18.81,32.2-31.79,40.2-38.99c2.68-7.68,6.31-15.66,10.9-23.89
	C384.92,80.09,386.53,78.77,388.26,78.77z"/>
<path class="st0" d="M532.45,82.67c0,2.22-0.41,5.15-1.21,8.72c-1.31,5.56-2.35,6-2.64,6c-0.49,0-1.05-0.71-1.6-2.06
	c-3.7-6.66-10.75-10.04-20.95-10.04c-10.4,0-22.53,5.57-36.05,16.55c-1.66,1.35-3.88,3.28-6.62,5.79c0.14-0.62,0.27-1.24,0.43-1.88
	c2.69-11.26,3-13.21,3-13.7c0-0.82-0.16-1.34-0.52-1.63c-0.16-0.14-0.45-0.3-0.88-0.23l-0.21,0.04l-0.12,0.18
	c-3.32,4.93-6.19,12.87-8.52,23.58c-7.94,7.53-18.57,17.96-31.84,31.23c-12.62,12.53-22.83,18.92-30.36,19.01
	c-7.27,0.07-13.53-2.6-18.65-7.99c-5.14-5.41-7.75-11.97-7.75-19.5c0-9.81,2.07-20.36,6.16-31.54c2.6-7.1,6-14.44,10.22-22.02
	c1.26-2.26,2.57-3.41,3.91-3.41c0.07,0,0.18,0,0.18,0.45c0,0.63-0.32,1.99-1.85,4.94c-2.71,5.38-5.02,10.54-6.95,15.47
	c-5.14,13.15-7.49,24.67-6.96,34.37c0.56,10.14,4.66,15.29,12.19,15.29c10.59-0.1,23.68-7.46,38.93-21.88
	c13.78-13.51,27.54-27.04,40.87-40.2c16.68-14.25,32.43-21.48,46.82-21.48c6.2,0,11.3,1.54,15.18,4.58
	C530.5,74.32,532.45,78.14,532.45,82.67z"/>
<path class="st0" d="M566.49,84.98c0,8.55-2.08,15.76-6.16,21.45c-2.13,2.92-6.65,6.63-13.45,11.01
	c-5.09,3.25-10.35,6.63-15.65,10.07c-16.12,11.8-26.9,19.43-32.03,22.67c-11.47,7.07-20.84,10.66-27.86,10.66
	c-5.13,0-9.28-2.75-12.34-8.17c-2.93-5.15-4.42-11.75-4.42-19.59c0-3.66,0.96-9.84,2.84-18.38c0.02-0.06,0.03-0.12,0.05-0.19
	c0.06-0.3,0.13-0.58,0.19-0.87s0.13-0.58,0.19-0.87c2.2-9.65,4.84-16.87,7.85-21.49c0.05,0.11,0.11,0.33,0.11,0.77
	c0,0.46-0.52,3.18-2.98,13.47c-0.27,1.12-0.51,2.22-0.75,3.3c-0.06,0.29-0.11,0.56-0.17,0.84c-0.06,0.28-0.12,0.56-0.18,0.84
	c-1.25,6.18-1.9,11.52-1.9,15.92c0,4.52,1.17,8.48,3.49,11.77c2.35,3.34,5.32,5.03,8.83,5.03c8.58,0,24.03-7.38,45.92-21.95
	c5.07-3.16,16.27-10.62,33.31-22.16c9.91-6.9,10.35-9.39,9.82-10.65c-2.03-5.06-5.71-9.12-10.96-12.07
	c-9.33-4.98-18.71-9.97-28.11-14.94c-6.63-3.76-13.95-10.08-21.75-18.79c-8.91-9.89-11.38-11.03-12.47-11.03
	c-0.34,0-0.67,0.06-0.97,0.17c0.11-0.75,0.31-1.99,0.65-4.07c0.55-3.37,0.73-7.29,0.55-11.65c-0.08-3.25,0.07-4.46,0.18-4.91
	c0.43,0.3,1.47,1.16,4,3.52c1.6,1.51,6.04,3.89,13.6,7.3c8.67,3.8,9.55,4.99,9.62,5.23c0,0-0.23,0.4-2.41,0.61
	c-1.9,0.18-4.92,0.59-8.99,1.22l-0.99,0.16l0.72,0.7c6.34,6.16,16.08,12.46,28.93,18.7c13.68,6.66,21.42,10.67,23.01,11.9
	C562.89,66.09,566.49,74.32,566.49,84.98z"/>
<g>
	<path class="st1" d="M319.18,201.15c0,3.71-0.95,7.15-2.86,10.3c-1.87,3.08-4.42,5.57-7.66,7.47c-3.55,2.09-7.81,3.14-12.8,3.14
		h-20.15v-1.2h1.08c2.34,0,3.81-0.6,4.43-1.81c0.35-0.68,0.52-1.6,0.52-2.77v-27.1c0-2.6-0.62-4.16-1.85-4.68
		c-0.7-0.29-1.67-0.43-2.92-0.43h-1.26v-1.2c2.07-0.1,5.02-0.23,8.86-0.37c3.38-0.12,6.92-0.18,10.61-0.18
		c7.96,0,14.02,1.8,18.18,5.41C317.24,191.12,319.18,195.59,319.18,201.15z M313.27,202.16c0-5.66-1.69-10.18-5.08-13.57
		c-3.39-3.38-8.78-5.08-16.17-5.08c-1.31,0-3,0.08-5.05,0.25v33.62c0,1.78,0.54,2.83,1.63,3.14c0.7,0.23,1.88,0.34,3.54,0.34
		c5.4,0,9.36-0.68,11.89-2.03c3.37-1.8,5.93-4.7,7.7-8.67C312.76,207.8,313.27,205.14,313.27,202.16z"/>
	<path class="st1" d="M384.35,184.08c-2.07,0.04-3.54,0.5-4.41,1.38c-0.87,0.88-1.31,2.35-1.31,4.4v17.01
		c0,3.51-0.88,6.55-2.65,9.14s-4.25,4.48-7.44,5.69c-2.4,0.92-5.25,1.38-8.55,1.38c-5.8,0-10.33-1.53-13.57-4.58
		c-3.1-2.87-4.65-6.63-4.65-11.29v-18.4c0-2.46-0.66-3.91-1.97-4.34c-0.72-0.23-1.87-0.36-3.45-0.4v-1.2h16.18v1.2h-0.55
		c-1.8,0-3.09,0.33-3.84,0.99s-1.14,1.87-1.14,3.63v17.52c0,4.41,1.3,7.81,3.91,10.19c2.5,2.28,5.99,3.42,10.47,3.42
		c9.59,0,14.38-4.56,14.38-13.67v-14.69c0-3.78-0.71-6-2.12-6.68c-0.82-0.37-2.17-0.61-4.06-0.71v-1.2h14.76V184.08z"/>
	<path class="st1" d="M447.86,222.77c-0.92,0.04-1.8,0.06-2.65,0.06c-3.73,0-6.73-0.5-8.98-1.51c-2.1-0.92-4.71-2.94-7.81-6.06
		l-4.15-4.15c-2.75-2.75-4.91-4.62-6.49-5.63c-2.1,0.08-3.53,0.12-4.29,0.12c-0.82,0-1.89-0.04-3.21-0.12v10.64
		c0,2.36,0.7,3.8,2.09,4.34c0.7,0.27,1.67,0.4,2.92,0.4h1.45v1.2h-17.81v-1.2h1.08c1.97,0,3.3-0.37,4-1.12s1.04-2.12,1.04-4.11
		v-26.52c0-1.89-0.33-3.2-0.98-3.94s-1.91-1.11-3.75-1.11h-1.38v-1.2c0.82,0,2.66-0.08,5.53-0.25c0.7-0.04,1.5-0.08,2.4-0.12
		c2.66-0.12,5.31-0.18,7.93-0.18c5.59,0,9.85,1.04,12.75,3.13c2.75,1.99,4.12,4.67,4.12,8.05c0,2.5-0.8,4.67-2.39,6.51
		c-1.49,1.72-3.48,2.95-5.98,3.69c1.93,1.5,4.33,3.69,7.2,6.56l4.98,4.99c2.63,2.63,5.25,4.44,7.88,5.42
		c1.37,0.51,2.88,0.83,4.52,0.96V222.77z M425.74,193.9c0-4.44-1.65-7.46-4.95-9.06c-1.83-0.88-4.29-1.32-7.38-1.32
		c-1.35,0-2.4,0.04-3.14,0.12v20.64c0.72,0.08,2.02,0.12,3.91,0.12C421.88,204.41,425.74,200.91,425.74,193.9z"/>
	<path class="st1" d="M503.15,222.06h-17.32v-1.2h1.63c1.52,0,2.54-0.06,3.08-0.18c1.23-0.29,1.85-0.94,1.85-1.97
		c0-0.51-0.23-1.37-0.68-2.58l-4.25-11.44h-13.04l-3.63,9.87c-0.84,2.3-1.26,3.62-1.26,3.97c0,1.56,1.7,2.34,5.11,2.34h0.98v1.2
		h-14.55v-1.2c2.56-0.08,4.22-0.77,4.98-2.06c0.49-0.84,1.1-2.24,1.81-4.18l11.47-31.31l-0.55-1.38h5.47l13.17,34.97
		c0.78,2.05,1.8,3.27,3.08,3.66c0.66,0.21,1.54,0.31,2.64,0.31V222.06z M486.39,201.95l-5.54-14.73l-5.35,14.73H486.39z"/>
	<path class="st1" d="M566.2,222.77c-0.92,0.04-1.8,0.06-2.64,0.06c-3.73,0-6.73-0.5-8.98-1.51c-2.11-0.92-4.71-2.94-7.81-6.06
		l-4.15-4.15c-2.75-2.75-4.91-4.62-6.49-5.63c-2.1,0.08-3.53,0.12-4.29,0.12c-0.82,0-1.89-0.04-3.21-0.12v10.64
		c0,2.36,0.7,3.8,2.09,4.34c0.7,0.27,1.67,0.4,2.92,0.4h1.45v1.2h-17.81v-1.2h1.08c1.97,0,3.3-0.37,4-1.12
		c0.7-0.75,1.04-2.12,1.04-4.11v-26.52c0-1.89-0.33-3.2-0.98-3.94s-1.91-1.11-3.75-1.11h-1.38v-1.2c0.82,0,2.66-0.08,5.53-0.25
		c0.7-0.04,1.5-0.08,2.4-0.12c2.66-0.12,5.31-0.18,7.93-0.18c5.59,0,9.84,1.04,12.75,3.13c2.74,1.99,4.12,4.67,4.12,8.05
		c0,2.5-0.8,4.67-2.39,6.51c-1.49,1.72-3.48,2.95-5.98,3.69c1.93,1.5,4.33,3.69,7.2,6.56l4.98,4.99c2.63,2.63,5.25,4.44,7.88,5.42
		c1.37,0.51,2.88,0.83,4.52,0.96V222.77z M544.08,193.9c0-4.44-1.65-7.46-4.95-9.06c-1.83-0.88-4.29-1.32-7.38-1.32
		c-1.35,0-2.4,0.04-3.14,0.12v20.64c0.72,0.08,2.02,0.12,3.91,0.12C540.22,204.41,544.08,200.91,544.08,193.9z"/>
</g>
<g>
	<path class="st1" d="M78.56,123.31h-6.44c-4.59,0-6.82-2.36-6.76-7.01h-9.37c-4.84,0-7.27-3.06-7.27-9.11
		c0-4.02,1.02-7.07,3.12-9.18c1.66-1.72,3.7-2.61,6.06-2.61c3,0,5.74,1.59,7.01,3.63h0.13V95.9h4.4v20.14c0,2.1,0.89,3.19,2.68,3.19
		h6.44V123.31z M65.11,112.34l-0.06-9.43c-1.53-2.61-3.51-3.95-5.99-3.95c-1.59,0-2.93,0.7-3.95,2.1c-1.21,1.47-1.78,3.63-1.78,6.37
		c0,1.47,0.19,2.49,0.51,3.19c0.51,1.15,1.53,1.72,3.06,1.72H65.11z M58.16,90.23h-4.72v-4.97h4.72V90.23z M65.94,90.23h-4.72v-4.97
		h4.72V90.23z"/>
	<path class="st1" d="M93.22,115.02c0,5.1-3.06,8.29-8.67,8.29H76.2v-4.08h8.29c2.49,0,4.33-1.47,4.33-4.33
		c0,0.57-0.06-4.33-0.19-14.85h4.4C93.15,110.11,93.22,115.08,93.22,115.02z M82.96,132.74h-4.72v-4.91h4.72V132.74z M90.8,132.74
		h-4.72v-4.91h4.72V132.74z"/>
	<path class="st1" d="M110.62,117.38c0,5.54-1.53,10.07-4.59,13.7c-3,3.63-7.01,5.67-11.98,6.05c-0.45-0.76-1.08-2.1-1.91-3.95
		c4.14,0,7.46-1.47,10.07-4.33c2.61-2.87,3.95-6.5,3.95-10.77l-0.06-17.97h4.4L110.62,117.38z"/>
	<path class="st1" d="M131.27,123.31h-5.48c-1.78,0-3.31-0.64-4.52-1.85c-1.4-1.34-2.17-3.25-2.17-5.67l-0.19-33.72h4.4l0.19,33.14
		c0,2.36,1.02,3.7,3,4.02h4.78V123.31z"/>
	<path class="st1" d="M163.27,119.23v4.08h-6.63c-3.12,0-6.31-0.7-9.62-2.17c-3.25,1.47-6.44,2.17-9.62,2.17h-7.27v-4.08h7.46
		c2.61,0,4.46-0.13,5.42-0.32c-2.36-1.59-4.14-3.63-5.35-6.18c-1.02-2.1-1.53-4.14-1.53-6.18c0-3.51,1.08-6.25,3.25-8.29
		c2.04-1.85,4.59-2.8,7.58-2.8c3.06,0,5.61,0.96,7.65,2.8c2.23,2.04,3.31,4.78,3.31,8.29c0,2.04-0.51,4.08-1.53,6.18
		c-1.21,2.55-3,4.59-5.35,6.18c0.96,0.19,2.8,0.32,5.42,0.32H163.27z M145.36,90.61h-4.72V85.7h4.72V90.61z M153.32,106.54
		c0-2.17-0.51-3.95-1.59-5.42c-1.21-1.59-2.8-2.42-4.78-2.42c-1.98,0-3.51,0.83-4.72,2.42c-1.08,1.47-1.59,3.25-1.59,5.42
		c0,2.8,0.89,5.29,2.74,7.46c1.47,1.85,2.68,2.74,3.63,2.74c1.02,0,2.23-0.89,3.7-2.74C152.43,111.83,153.32,109.35,153.32,106.54z
		 M153.2,90.61h-4.72V85.7h4.72V90.61z"/>
	<path class="st1" d="M202.47,123.31h-12.62c-2.55,0-4.72-1.02-6.5-3.06c-3.76,2.04-7.46,3.06-10.96,3.06h-10.52v-4.08h10.45
		c2.74,0,5.61-0.7,8.54-2.1c-2.55-3.12-4.72-5.42-6.5-6.82c-2.74-2.1-5.61-3.31-8.67-3.51v-5.23c3.76-3.57,9.11-5.35,16.13-5.29
		c4.65,0.06,8.86,1.08,12.68,3.19c2.36,1.21,4.08,2.55,5.23,3.89c-3.12,5.99-7.52,10.96-13.26,14.98c0.7,0.51,1.53,0.83,2.61,0.89
		h1.85h11.54V123.31z M194.56,104.25c-1.15-0.7-2.23-1.4-3.31-2.1c-2.74-1.27-5.8-1.91-9.18-1.91c-2.93,0-5.42,0.32-7.52,0.89
		c-1.47,0.45-3.25,1.21-5.23,2.29c4.97,1.34,9.88,5.29,14.66,11.85C188.25,112.41,191.82,108.71,194.56,104.25z"/>
	<path class="st1" d="M213.94,115.02c0,5.1-3.06,8.29-8.67,8.29h-4.14v-4.08h4.08c2.49,0,4.33-1.47,4.33-4.33
		c0-4.02-0.06-9.5-0.13-16.38c-0.06-7.97-0.13-13.45-0.13-16.44h4.4c0,2.93,0.06,8.41,0.13,16.51
		C213.88,105.46,213.94,110.94,213.94,115.02z"/>
	<path class="st1" d="M226.94,123.31h-4.4l-0.32-41.24h4.4L226.94,123.31z"/>
</g>
<line class="st2" x1="230.29" y1="151.06" x2="46.56" y2="151.06"/>
<g>
	<path class="st1" d="M73.59,212.02h-3.69l-7.35-21.16l0.48-0.71h6.26V175.6h-9.02v36.42h-3.51v-39.52h13.23
		c0.82,0,1.5,0.26,2.02,0.78c0.52,0.52,0.78,1.2,0.78,2.02v15c0,1.9-1.28,2.85-3.84,2.85c-0.25,0-0.62-0.01-1.11-0.04
		c-0.49-0.02-0.84-0.04-1.06-0.04C69.07,199.37,71.34,205.68,73.59,212.02z"/>
	<path class="st1" d="M92.18,209.16c0,1.9-0.94,2.85-2.83,2.85h-8.08c-1.89,0-2.83-0.95-2.83-2.85V190.3c0-1.9,0.94-2.85,2.83-2.85
		h8.08c1.89,0,2.83,0.95,2.83,2.85v8.84l-1.14,1.19H81.7v8.89h7.22v-4.5h3.26V209.16z M88.92,197.65v-7.4H81.7v7.4H88.92z"/>
	<path class="st1" d="M111.63,212.02h-3.31v-0.68c-1.33,0.19-2.66,0.36-3.99,0.53c-1.65,0.2-2.97,0.3-3.96,0.3
		c-1.83,0-2.75-0.91-2.75-2.73v-8.96c0-1.89,0.95-2.83,2.85-2.83h7.9v-7.4h-7.22v4.19h-3.26v-4.14c0-1.9,0.94-2.85,2.83-2.85h8.08
		c1.89,0,2.83,0.95,2.83,2.85V212.02z M108.37,208.96v-8.69h-7.5v8.84L108.37,208.96z"/>
	<path class="st1" d="M120.64,212.02h-3.31v-39.52h3.31V212.02z"/>
	<path class="st1" d="M149.86,212.02h-12.98v-39.52h12.83v3.11h-9.32v14.75h8.48v3.16h-8.48v15.4h9.47V212.02z"/>
	<path class="st1" d="M168.17,209.16c0,1.9-0.95,2.85-2.85,2.85h-7.7c-1.9,0-2.85-0.95-2.85-2.85v-5.58h3.31v5.53h6.79v-4.9
		l-8.79-7.2c-0.84-0.67-1.26-1.55-1.26-2.63v-4.09c0-1.9,0.95-2.85,2.85-2.85h7.6c1.9,0,2.85,0.95,2.85,2.85v4.9h-3.26v-4.85h-6.79
		v4.29l8.86,7.2c0.82,0.66,1.24,1.55,1.24,2.68V209.16z"/>
	<path class="st1" d="M182.34,212.02h-4.77c-1.89,0-2.83-0.95-2.83-2.85V190.4h-2.96v-2.95h2.96v-7.65h3.31v7.65h4.29v2.95h-4.29
		v18.66h4.29V212.02z"/>
	<path class="st1" d="M200.52,212.02h-3.31v-0.68c-1.33,0.19-2.66,0.36-3.99,0.53c-1.65,0.2-2.97,0.3-3.96,0.3
		c-1.83,0-2.75-0.91-2.75-2.73v-8.96c0-1.89,0.95-2.83,2.85-2.83h7.9v-7.4h-7.22v4.19h-3.26v-4.14c0-1.9,0.94-2.85,2.83-2.85h8.08
		c1.89,0,2.83,0.95,2.83,2.85V212.02z M197.26,208.96v-8.69h-7.5v8.84L197.26,208.96z"/>
	<path class="st1" d="M214.86,212.02h-4.77c-1.89,0-2.83-0.95-2.83-2.85V190.4h-2.96v-2.95h2.96v-7.65h3.31v7.65h4.29v2.95h-4.29
		v18.66h4.29V212.02z"/>
	<path class="st1" d="M232.89,209.16c0,1.9-0.94,2.85-2.83,2.85h-8.08c-1.89,0-2.83-0.95-2.83-2.85V190.3c0-1.9,0.94-2.85,2.83-2.85
		h8.08c1.89,0,2.83,0.95,2.83,2.85v8.84l-1.14,1.19h-9.34v8.89h7.22v-4.5h3.26V209.16z M229.64,197.65v-7.4h-7.22v7.4H229.64z"/>
</g>
<line class="st2" x1="247.24" y1="66.73" x2="247.24" y2="222.06"/>
</svg>
